<svg xmlns="http://www.w3.org/2000/svg" width="64" height="64" viewBox="0 0 64 64" fill="none">
	<defs>
		<linearGradient id="autonest-bg" x1="6" y1="6" x2="58" y2="58" gradientUnits="userSpaceOnUse">
			<stop stop-color="#4F46E5"/>
			<stop offset="1" stop-color="#14B8A6"/>
		</linearGradient>
		<linearGradient id="autonest-car" x1="14" y1="25" x2="50" y2="40" gradientUnits="userSpaceOnUse">
			<stop stop-color="#FDE68A"/>
			<stop offset="1" stop-color="#F59E0B"/>
		</linearGradient>
	</defs>

	<rect x="4" y="4" width="56" height="56" rx="16" fill="url(#autonest-bg)"/>
	<path d="M14 36.5C14 34.5 15.6 33 17.5 33H46.5C48.4 33 50 34.5 50 36.5V37.5C50 39.4 48.4 41 46.5 41H17.5C15.6 41 14 39.4 14 37.5V36.5Z" fill="url(#autonest-car)"/>
	<path d="M19 33L24.2 24.8C24.9 23.7 26.1 23 27.4 23H36.6C37.9 23 39.1 23.7 39.8 24.8L45 33H19Z" fill="url(#autonest-car)"/>
	<circle cx="22" cy="41.5" r="3" fill="#0F172A"/>
	<circle cx="42" cy="41.5" r="3" fill="#0F172A"/>
	<path d="M18 18.5L32 10L46 18.5" stroke="#E5E7EB" stroke-width="3" stroke-linecap="round" stroke-linejoin="round"/>
</svg>
